<svg xmlns="http://www.w3.org/2000/svg" viewBox="0 0 1000 394.4" width="1000" height="394.4" role="img" aria-label="World map"><path d="M311.8 382.9L319.3 385.3L307.7 387.5L299.3 384.7L292.6 380.1L302.5 383.5L307.4 379.2L311.8 382.9ZM337.4 375.3L339.6 376.5L338.8 377.5L331.4 378.6L330.0 377.4L337.4 375.3ZM695.2 371.4L691.0 371.6L691.5 368.4L695.9 369.6L695.2 371.4ZM903.9 346.6L911.9 346.9L910.9 353.4L905.7 354.3L902.0 347.7L903.9 346.6ZM980.6 347.0L984.0 348.2L979.8 353.8L980.8 355.1L976.3 356.2L973.9 360.9L970.4 362.9L963.0 361.7L964.0 358.6L973.7 352.9L978.0 347.1L980.0 345.8L980.6 347.0ZM985.0 333.8L991.0 338.6L995.9 338.0L994.4 342.1L992.2 342.1L986.8 349.1L985.1 348.0L985.8 344.2L982.8 343.1L985.3 337.2L979.5 329.2L984.2 331.3L985.0 333.8ZM964.2 294.9L959.7 293.6L955.6 289.2L964.2 294.9ZM639.0 271.0L639.9 277.0L638.0 277.0L630.8 302.6L626.1 304.4L622.3 302.7L620.2 294.6L623.3 289.1L622.1 281.7L623.5 278.4L628.6 277.2L632.5 273.9L636.7 266.8L639.0 271.0ZM898.8 271.6L899.8 273.7L901.6 272.7L903.8 275.0L906.6 286.0L913.5 290.0L915.8 295.4L918.7 295.6L919.2 298.5L925.4 305.8L926.6 311.4L924.7 321.2L917.6 332.4L916.7 337.3L906.4 341.8L902.4 340.0L902.9 338.6L898.9 341.1L890.7 338.9L887.7 333.7L883.7 332.3L883.9 328.8L880.1 331.3L882.8 324.7L877.7 330.3L873.0 323.9L864.8 320.8L850.4 322.8L845.1 324.9L843.5 327.5L833.0 327.7L827.8 330.7L819.5 328.3L821.4 325.7L821.4 321.1L814.8 305.9L816.1 307.1L815.1 304.5L817.3 306.4L815.0 301.1L817.1 293.8L817.3 295.9L824.2 290.8L835.7 288.0L841.7 278.9L844.1 280.7L843.1 279.4L849.1 272.9L853.0 271.7L860.1 274.9L862.8 268.2L868.3 267.0L866.2 264.6L867.7 264.2L875.8 267.4L879.1 266.3L880.4 267.6L876.4 275.0L889.5 282.5L892.4 278.9L893.6 267.8L895.9 263.0L898.8 271.6ZM845.7 261.5L842.9 261.8L847.5 257.4L853.7 256.7L845.7 261.5ZM827.5 255.8L830.9 257.5L824.3 258.4L827.5 255.8ZM801.7 252.2L807.7 251.3L821.4 256.6L818.2 257.6L792.7 252.4L794.6 249.7L801.7 252.2ZM922.2 248.6L917.3 250.9L912.0 249.3L917.1 247.2L918.9 248.5L920.9 244.9L923.2 245.3L922.2 248.6ZM862.4 241.9L863.4 244.1L855.3 242.8L855.9 241.2L862.4 241.9ZM872.6 236.5L873.4 241.0L876.3 242.7L878.6 239.7L884.2 238.1L901.6 244.1L905.5 248.5L910.1 250.2L908.9 253.9L918.6 262.7L910.9 261.5L905.7 255.7L902.1 254.5L896.2 259.2L886.5 255.8L882.3 256.7L885.2 253.7L883.1 248.3L871.3 243.2L869.4 244.8L866.6 241.2L871.4 239.5L867.3 239.5L862.6 235.9L867.7 234.4L872.6 236.5ZM847.9 229.4L843.6 232.7L833.8 232.7L833.4 234.8L835.9 237.2L842.6 235.0L837.5 238.6L842.1 248.2L839.5 248.0L840.9 245.7L837.5 246.0L836.0 240.6L834.2 241.5L834.5 248.7L831.6 248.3L831.9 243.0L829.9 241.1L833.4 231.8L835.8 229.7L841.5 230.9L847.9 229.4ZM857.5 230.2L855.8 235.8L853.9 230.5L855.4 227.3L857.5 230.2ZM793.9 249.6L790.9 249.6L785.0 245.1L773.9 228.3L764.7 218.1L770.8 218.8L779.6 227.5L782.4 227.5L788.4 233.0L787.3 235.3L794.7 241.8L793.9 249.6ZM827.4 228.3L830.5 230.8L827.3 231.2L826.4 235.6L823.8 237.5L822.6 244.5L806.2 241.5L803.0 234.6L804.6 227.8L808.8 228.2L809.4 225.8L813.9 224.7L824.2 214.1L831.1 218.3L825.9 224.3L827.4 228.3ZM851.0 210.0L851.5 213.4L850.5 215.9L849.5 213.1L848.2 214.5L848.3 217.8L845.1 216.2L845.1 212.9L843.4 211.6L838.7 213.4L843.0 209.2L844.0 210.4L848.5 208.4L848.4 206.2L851.0 210.0ZM725.6 216.1L723.2 216.8L721.9 214.5L722.6 206.0L727.2 212.4L725.6 216.1ZM844.4 204.8L841.7 208.3L839.9 206.4L841.5 203.1L843.1 202.9L842.6 204.8L844.7 202.1L844.4 204.8ZM829.2 207.5L825.5 210.1L832.0 201.8L832.5 204.0L829.2 207.5ZM838.6 200.3L842.0 201.2L838.9 204.3L838.6 200.3ZM848.6 199.5L849.4 202.6L847.3 201.9L846.7 205.2L845.3 201.4L846.9 200.6L845.2 198.5L848.6 199.5ZM837.0 181.9L839.6 182.0L840.3 185.9L838.0 189.1L838.1 193.5L844.3 195.0L844.7 198.5L841.5 195.7L835.1 194.8L836.1 193.0L833.5 191.7L833.0 187.9L834.1 188.8L835.3 181.9L837.0 181.9ZM298.4 178.1L305.7 178.8L310.2 181.6L303.7 182.1L301.7 184.4L293.2 182.4L299.1 181.5L296.1 178.8L298.4 178.1ZM806.5 181.4L801.8 181.9L801.7 179.5L807.7 177.6L806.5 181.4ZM278.7 170.1L293.9 177.0L284.0 178.2L285.9 176.6L281.3 173.3L271.8 171.1L272.8 170.5L264.0 172.5L271.5 168.9L278.7 170.1ZM836.6 170.0L835.4 172.3L833.6 167.9L837.5 163.1L838.8 163.9L836.6 170.0ZM874.0 138.5L872.8 141.1L867.7 141.7L869.2 138.7L874.0 138.5ZM596.0 134.2L591.6 137.3L589.6 135.8L596.0 134.2ZM565.8 134.2L573.0 135.3L568.7 136.3L565.3 135.3L565.8 134.2ZM543.1 127.1L541.9 131.6L534.5 128.9L534.9 127.4L543.1 127.1ZM525.6 118.9L526.9 124.5L524.5 125.3L522.7 119.6L525.6 118.9ZM891.6 130.2L889.6 135.7L881.2 137.2L877.2 140.4L875.2 137.2L863.9 139.2L866.7 141.3L864.8 146.0L861.7 146.1L862.4 143.6L859.5 140.8L868.4 134.9L876.9 134.6L879.8 129.7L881.6 131.0L887.3 127.2L888.6 120.7L892.7 118.4L894.1 124.5L891.6 127.3L891.6 130.2ZM526.6 116.2L525.6 118.4L523.7 116.0L526.1 113.9L526.6 116.2ZM899.8 110.6L903.7 110.0L904.3 113.2L900.2 113.9L897.7 116.7L893.4 114.8L891.9 117.8L888.8 117.9L888.4 115.1L889.8 113.0L892.7 112.8L894.4 106.8L899.8 110.6ZM156.9 98.6L151.0 97.7L144.3 94.5L143.4 92.3L150.7 93.6L156.9 98.6ZM344.1 92.5L342.2 95.0L344.0 94.0L351.5 96.5L350.6 98.6L352.5 98.1L353.8 101.3L352.6 103.7L349.5 103.3L349.3 100.7L346.1 103.1L344.5 103.0L346.4 101.7L343.7 101.0L335.4 101.1L336.7 99.3L335.5 98.5L340.7 92.4L346.1 90.0L344.1 92.5ZM131.4 83.2L134.0 83.0L133.2 86.2L135.6 88.4L130.4 85.0L130.1 82.9L131.4 83.2ZM899.0 92.4L901.8 97.3L897.7 96.4L896.0 100.4L898.6 105.2L896.5 103.5L894.7 105.6L894.9 91.8L893.3 89.1L893.6 85.3L896.1 84.0L895.0 82.7L896.3 82.3L899.0 92.4ZM481.1 88.2L472.3 89.4L474.5 86.5L473.1 83.7L481.3 80.1L484.3 81.8L481.1 88.2ZM535.3 78.9L533.6 81.1L530.3 78.4L534.4 77.5L535.3 78.9ZM75.0 74.7L72.2 75.7L70.4 73.7L74.4 72.3L77.4 73.4L75.0 74.7ZM491.7 70.5L488.7 73.5L494.6 73.1L491.3 77.9L494.2 78.0L501.3 86.3L504.7 86.8L502.9 89.4L504.0 90.9L485.4 94.6L484.0 94.0L490.5 90.5L485.4 88.9L488.3 88.1L487.3 84.7L491.4 85.0L491.8 83.4L486.5 81.1L486.0 78.4L484.5 79.7L482.9 75.6L486.1 70.5L491.7 70.5ZM263.4 51.0L277.5 56.3L269.1 55.3L262.4 58.2L261.5 56.6L257.7 56.8L260.1 55.5L261.4 50.7L263.4 51.0ZM459.7 48.7L459.1 50.5L462.2 52.4L448.2 57.0L436.8 55.7L439.5 54.4L433.5 53.1L438.3 51.7L432.4 51.1L438.5 48.9L442.8 50.7L459.7 48.7ZM289.3 46.8L285.5 45.6L286.6 44.0L291.3 44.4L289.3 46.8ZM13.8 48.4L22.6 47.5L28.1 50.1L20.7 51.6L19.6 54.9L4.6 51.7L3.6 49.7L0.3 50.3L1.6 51.7L0.0 52.8L0.0 41.8L14.1 46.7L13.8 48.4ZM234.3 41.4L222.8 40.6L227.2 38.5L234.3 41.4ZM3.6 36.4L0.0 36.6L0.0 34.7L6.7 35.4L3.6 36.4ZM248.5 40.3L248.5 43.1L252.2 40.9L255.5 42.7L254.7 44.8L257.4 46.7L262.3 42.3L262.4 39.2L270.5 39.8L274.2 41.2L272.3 44.1L274.3 45.6L268.5 48.9L261.8 48.4L257.4 53.4L250.2 55.5L247.9 58.4L241.2 61.0L238.2 64.2L237.0 69.6L241.1 70.0L243.6 74.8L247.5 74.2L263.9 79.7L271.5 80.1L271.9 85.3L278.0 91.1L281.7 87.3L278.3 81.5L287.4 76.3L281.9 70.0L285.2 67.1L283.0 60.2L294.9 59.9L301.7 63.5L306.7 63.7L307.5 69.6L312.1 71.6L320.6 65.7L329.5 75.1L328.3 76.8L340.7 81.6L345.1 85.4L345.3 88.5L333.2 93.8L315.6 93.8L302.5 103.3L309.3 99.2L319.3 96.6L321.7 97.9L319.1 99.8L320.9 104.9L329.1 105.9L331.9 102.8L333.9 105.8L318.4 112.4L316.3 112.2L316.2 109.8L321.0 107.5L313.5 108.0L303.6 113.8L303.3 115.7L305.7 117.7L295.2 119.6L300.2 119.6L294.6 120.1L291.9 125.2L290.2 123.6L291.5 126.7L289.1 130.0L287.9 124.6L288.0 127.5L286.2 127.1L288.1 128.0L289.6 134.6L274.1 146.0L277.6 158.7L276.7 163.3L273.0 161.5L269.6 152.5L266.4 149.7L263.6 151.0L260.0 148.9L252.3 149.1L252.2 152.0L249.6 152.5L239.3 150.8L231.7 154.7L229.5 157.3L228.1 171.0L232.5 179.7L237.7 182.9L244.3 181.4L247.9 179.8L249.2 175.0L258.2 173.5L253.0 189.2L263.9 188.9L268.3 190.9L267.2 202.5L273.8 208.9L279.0 206.6L286.6 209.3L291.9 202.5L296.1 202.1L300.7 198.8L302.4 199.7L300.1 201.6L300.8 208.1L302.7 205.9L301.7 202.9L305.1 201.7L305.7 199.5L310.6 204.0L319.7 205.3L321.3 203.8L328.1 203.6L325.7 204.4L326.7 205.7L331.0 207.3L331.5 209.5L335.8 211.1L341.3 216.7L350.1 217.3L357.5 221.7L361.2 228.5L360.0 233.6L364.9 234.0L365.0 236.8L367.2 234.9L375.3 237.6L376.2 240.8L388.9 241.3L396.6 246.7L401.1 247.6L403.5 253.7L402.4 258.3L392.6 269.6L390.9 283.0L386.3 294.3L383.4 297.1L376.0 298.2L367.6 302.5L365.3 305.2L364.2 313.0L350.5 328.9L343.8 330.2L337.7 327.5L342.3 335.8L339.6 339.4L335.5 340.9L326.8 341.2L327.4 346.3L325.7 347.3L319.1 347.4L319.5 350.2L323.7 351.6L318.9 354.2L317.9 358.4L313.1 359.9L312.3 361.9L317.7 364.5L316.7 367.0L307.9 374.3L310.7 378.7L303.2 380.3L302.8 382.9L291.8 378.5L290.0 368.5L294.1 363.7L289.9 362.9L292.5 360.5L293.5 355.8L296.6 356.8L298.0 351.1L296.1 350.3L295.3 353.8L293.5 353.4L296.6 342.4L295.6 336.5L301.6 323.4L305.1 288.2L304.5 284.3L301.5 281.6L288.9 274.0L278.4 253.3L274.3 250.4L273.9 246.5L278.4 240.7L275.1 239.6L275.2 236.3L277.5 231.2L281.0 229.5L285.8 222.6L282.8 210.2L279.0 208.5L276.4 210.9L277.8 212.4L275.3 213.3L274.8 211.6L268.0 209.9L264.0 205.3L263.6 206.8L262.1 205.7L261.9 202.5L257.0 196.4L246.6 194.6L237.0 188.3L231.8 189.9L212.5 182.5L207.0 177.9L207.6 173.8L205.5 170.1L188.3 152.9L185.7 146.7L181.2 145.0L181.5 149.5L196.0 168.9L194.4 169.9L188.4 164.6L188.1 161.1L180.4 156.3L182.9 154.0L179.1 151.2L174.2 141.5L164.9 137.2L154.4 121.4L155.8 106.9L153.6 99.5L158.0 99.9L159.5 102.5L158.8 97.2L146.0 92.1L144.9 88.0L141.3 86.8L127.6 71.9L120.5 71.6L111.5 68.0L91.3 64.2L88.3 64.8L88.8 66.7L78.6 69.0L79.4 64.7L81.6 63.1L72.2 68.5L74.2 69.8L71.6 71.8L59.9 77.8L42.3 82.2L61.9 73.4L63.8 69.7L50.1 70.4L50.3 67.7L44.9 67.2L38.6 62.5L42.9 57.9L53.4 56.2L51.3 54.4L53.4 53.4L41.8 54.3L33.0 50.9L43.1 48.4L50.9 49.7L36.8 43.4L50.3 38.0L65.1 35.1L120.8 41.9L139.5 38.4L141.4 39.5L144.1 37.5L150.7 40.3L154.4 38.4L154.8 40.6L162.6 39.5L183.6 43.3L179.7 44.7L194.6 44.5L197.6 46.2L200.6 44.8L197.7 43.6L199.5 42.6L205.1 42.2L218.2 45.4L226.5 45.1L226.2 43.3L228.7 42.8L233.0 43.8L233.0 46.4L238.2 41.5L232.0 38.6L232.2 35.6L235.5 33.6L242.0 35.2L245.8 38.4L243.3 39.7L248.5 40.3ZM182.9 30.2L181.5 31.5L191.5 32.1L194.7 30.7L199.5 34.3L200.9 33.2L198.9 30.3L204.1 30.3L207.2 31.5L209.8 36.1L219.5 38.8L219.2 40.0L214.6 40.3L216.4 41.3L215.5 42.4L205.7 41.2L185.2 43.0L174.1 39.0L187.7 37.9L172.5 37.4L171.0 36.4L177.5 35.3L168.3 34.6L172.6 31.4L182.9 30.2ZM209.7 29.4L207.3 31.2L202.9 29.3L209.7 29.4ZM287.9 30.3L279.2 31.3L275.3 29.6L283.2 28.7L287.9 30.3ZM259.5 30.1L261.7 31.8L264.3 29.6L271.3 28.5L276.1 31.3L275.7 33.2L283.8 31.3L294.2 35.2L299.3 34.6L308.9 37.4L314.0 41.1L308.9 42.4L328.2 47.6L322.4 52.8L314.7 48.9L311.1 49.3L310.7 50.9L318.6 54.5L320.4 57.2L319.4 59.2L308.9 56.3L316.2 61.3L302.7 58.6L292.1 53.7L284.1 54.9L281.8 54.0L283.6 51.9L294.6 51.5L293.6 50.5L298.2 46.4L297.4 45.2L280.7 38.4L264.0 39.0L253.7 37.7L251.4 36.8L254.3 35.5L250.3 35.5L249.4 32.7L251.6 30.2L261.6 28.3L259.5 30.1ZM221.2 28.2L229.5 28.4L227.6 30.6L231.8 31.8L231.3 34.3L224.1 35.1L215.3 31.9L221.0 31.4L217.9 29.6L221.2 28.2ZM898.9 30.0L888.5 29.5L894.6 28.2L898.9 30.0ZM241.1 31.2L235.0 33.2L233.3 29.3L237.5 27.4L248.6 28.2L241.1 31.2ZM165.4 35.0L158.1 36.4L150.2 33.7L155.7 28.7L153.0 27.0L173.5 27.3L179.1 29.2L168.8 31.9L165.4 35.0ZM240.0 25.1L231.1 25.2L236.5 23.2L240.0 25.1ZM903.0 23.4L900.8 25.5L886.0 26.1L880.5 24.3L885.6 21.8L903.0 23.4ZM226.4 20.2L228.5 21.5L227.3 25.0L215.3 23.4L215.1 21.3L226.4 20.2ZM199.4 21.7L206.4 23.7L188.3 26.6L183.7 25.8L189.5 24.5L173.0 24.4L179.4 20.9L197.0 23.7L193.1 21.0L195.6 20.0L199.4 21.7ZM659.8 36.9L649.1 36.8L642.9 33.3L651.2 28.8L648.6 28.5L655.3 26.0L654.5 24.8L669.9 21.5L691.3 20.7L662.4 26.9L653.9 32.3L654.5 34.6L659.8 36.9ZM237.0 19.2L245.5 20.1L252.3 23.3L274.6 23.0L278.2 25.2L250.7 26.3L243.3 25.5L239.2 21.3L230.2 20.1L237.0 19.2ZM177.2 17.7L174.7 20.7L158.7 21.9L169.2 18.0L177.2 17.7ZM797.1 19.5L797.9 20.9L808.5 20.2L817.0 22.6L803.9 27.3L813.9 27.8L815.4 29.6L821.0 28.5L842.2 30.6L842.4 28.5L852.7 29.0L857.2 30.4L858.5 32.2L856.8 33.4L864.7 36.7L867.4 33.8L888.5 34.8L886.5 32.2L890.2 31.0L915.3 32.8L924.9 36.5L941.7 36.5L944.0 37.6L943.6 39.7L947.1 40.5L966.2 40.0L971.0 42.5L974.5 41.6L972.2 39.9L973.5 38.6L988.1 39.2L1000.0 41.8L1000.0 52.8L992.8 53.9L998.3 58.4L997.9 60.3L992.7 59.7L982.4 62.1L973.1 67.0L969.2 65.1L961.9 67.3L954.3 67.0L950.0 71.5L953.3 73.3L952.9 77.3L950.4 77.4L949.2 79.8L950.3 81.0L945.5 82.4L944.5 85.5L940.4 86.2L939.5 89.0L935.5 91.6L931.8 79.5L933.1 75.6L935.6 72.7L939.9 72.1L954.6 63.5L956.9 59.6L953.5 59.8L944.8 65.2L942.5 61.7L935.3 62.7L928.4 67.3L930.7 69.0L920.2 70.1L920.4 68.0L916.1 67.6L895.0 69.3L875.4 81.3L883.8 84.0L888.6 82.8L892.6 85.9L892.7 88.2L889.1 98.8L883.9 104.7L874.6 112.8L870.9 114.4L867.4 113.1L854.3 122.9L859.6 131.2L858.6 135.9L851.3 137.8L850.3 131.3L852.4 130.9L846.4 127.5L848.1 123.5L845.2 122.4L836.3 125.3L839.4 121.0L837.9 119.6L827.9 124.4L826.5 125.7L830.3 129.3L839.9 129.3L840.3 130.7L836.4 131.5L831.0 136.4L834.0 137.9L838.6 145.3L836.8 148.1L839.1 150.5L838.0 154.9L829.6 165.1L821.9 170.0L807.7 173.9L806.8 176.8L805.2 177.0L805.2 173.9L801.5 173.0L794.1 178.5L793.5 180.4L802.4 190.9L803.7 196.0L803.3 200.9L792.1 209.4L791.9 205.8L787.5 203.8L785.0 199.5L780.1 198.3L780.5 196.1L778.0 196.1L775.6 207.7L777.4 207.8L779.1 212.7L786.0 218.0L789.5 229.7L781.6 225.7L778.0 215.4L773.6 210.0L773.2 211.7L774.3 201.6L769.9 186.3L764.9 189.7L761.6 188.8L762.0 182.7L753.9 170.1L751.4 170.0L750.8 172.7L741.6 173.6L740.3 177.4L728.3 187.3L723.1 189.2L721.8 204.6L715.4 211.2L704.3 188.9L701.8 174.0L695.8 175.3L692.1 172.0L692.6 169.9L684.4 162.7L670.8 163.7L659.4 161.8L656.9 157.9L652.0 159.8L643.1 155.9L639.2 149.6L633.3 150.1L641.1 164.6L641.7 161.1L643.3 161.7L643.9 166.6L650.0 166.3L656.6 160.0L657.9 166.0L663.1 167.9L666.1 171.4L660.6 177.1L660.3 180.7L653.5 185.5L645.5 187.8L644.9 190.0L635.2 194.4L620.8 198.2L618.5 186.7L608.7 174.2L606.9 167.5L596.2 155.4L597.0 151.4L594.2 156.5L590.1 150.4L599.1 166.9L598.7 169.2L602.4 172.2L604.1 181.6L606.7 183.3L609.1 189.1L620.3 198.9L618.7 200.7L623.9 204.3L642.0 199.9L641.8 203.8L632.6 221.6L611.8 240.5L608.9 246.3L607.8 251.3L609.6 252.3L608.9 256.9L612.4 263.2L613.3 274.1L609.6 279.8L596.6 288.3L598.9 299.2L590.5 304.8L589.5 313.2L578.4 324.4L571.6 327.6L562.7 327.4L554.5 330.1L551.0 328.2L550.6 321.3L542.3 308.6L539.6 294.8L532.8 283.5L532.7 277.2L538.0 263.1L533.1 247.3L524.4 236.4L527.2 224.8L526.1 223.0L523.6 220.1L516.4 221.5L512.0 215.9L505.2 216.3L494.5 220.2L487.1 219.0L479.1 221.3L475.0 219.9L465.5 213.2L458.8 203.1L453.9 199.5L451.0 192.4L454.3 188.5L455.1 183.0L452.9 172.5L459.9 160.4L473.4 150.2L474.2 142.9L480.8 138.6L483.5 134.0L494.0 135.6L504.1 131.7L526.4 129.6L530.8 130.8L528.7 139.5L553.0 149.3L555.7 147.3L555.9 143.8L559.8 142.1L580.3 147.6L586.0 145.7L593.8 147.3L600.0 137.1L600.4 131.5L590.3 133.0L588.1 131.5L582.5 132.9L576.8 131.5L573.1 127.2L574.5 125.0L572.7 123.7L575.8 121.1L580.1 120.9L581.2 118.8L586.5 119.2L593.1 116.6L606.5 119.6L612.1 119.4L615.8 116.8L615.1 114.9L601.9 107.7L606.2 104.9L604.6 103.8L608.7 102.0L597.1 104.8L597.3 106.5L600.9 108.0L594.1 110.1L590.2 107.4L592.5 105.3L585.4 103.9L580.1 108.6L576.9 115.1L580.0 119.3L573.2 121.8L572.4 119.9L569.2 119.6L565.9 120.3L567.8 121.9L566.4 122.3L562.9 121.5L566.8 128.7L564.2 128.0L564.3 132.2L562.5 132.2L553.9 121.5L554.3 117.4L536.5 106.3L534.2 107.3L535.0 110.9L551.3 121.8L546.9 121.0L545.7 122.8L547.4 125.3L544.7 127.8L542.8 122.1L533.6 117.5L528.3 111.3L524.7 110.1L518.1 113.5L508.6 113.7L508.4 117.0L502.3 119.4L499.2 124.1L500.3 125.7L494.0 131.5L487.9 131.5L485.1 133.5L481.9 130.7L475.3 130.9L475.4 127.0L473.5 125.7L475.6 120.1L473.9 113.8L477.8 111.8L494.7 112.7L496.2 111.0L496.7 105.5L491.8 101.2L487.5 100.1L487.2 98.1L495.5 98.2L494.6 95.1L497.3 96.3L503.7 94.1L504.6 91.8L510.6 89.9L513.1 85.9L522.6 84.6L524.4 83.3L522.6 79.1L523.7 74.7L529.4 73.0L528.5 75.3L530.3 76.5L526.8 79.2L530.4 83.3L534.8 82.0L539.2 84.0L549.0 81.0L554.6 82.1L559.1 80.0L559.9 73.9L562.6 72.9L567.0 74.9L567.9 71.2L564.8 68.9L580.9 66.6L578.0 65.3L563.5 67.1L559.2 64.7L559.8 57.8L570.6 52.5L566.4 50.0L561.6 50.8L558.9 52.7L559.4 54.4L549.6 59.0L547.6 62.9L552.2 66.4L546.7 70.2L544.1 77.5L536.0 79.6L528.8 68.1L523.3 71.4L515.7 70.6L513.9 61.2L529.2 54.2L541.0 45.0L553.3 39.4L564.0 38.3L568.2 36.0L578.2 35.6L586.9 37.6L583.3 38.4L586.4 40.1L589.3 39.2L601.4 41.5L614.1 46.0L614.2 47.8L606.6 50.0L592.2 48.2L596.7 50.3L597.1 54.4L602.8 56.0L601.4 53.4L603.3 52.4L610.0 54.1L612.3 53.4L610.5 51.4L616.9 48.7L622.1 49.8L623.7 47.9L620.7 42.9L628.5 43.7L630.1 45.3L626.5 45.6L626.6 47.2L628.7 48.1L649.2 42.1L651.3 42.2L648.6 43.9L663.3 42.0L666.5 43.7L669.7 41.8L666.8 40.2L668.2 39.3L690.3 44.2L692.2 42.7L685.9 40.4L685.3 36.0L692.2 31.0L701.6 31.2L702.2 32.7L699.6 35.0L702.2 37.8L701.6 41.6L704.6 43.3L698.0 49.1L701.2 49.5L708.5 45.1L706.9 43.5L708.2 41.7L704.4 39.9L706.7 37.1L703.1 34.9L708.0 33.0L707.4 31.0L710.2 32.5L709.1 35.2L712.1 35.7L710.8 33.7L715.5 32.6L726.4 34.0L723.6 28.8L741.2 28.0L738.9 26.5L742.1 24.7L779.9 21.0L789.9 17.5L794.6 18.4L790.8 19.1L797.1 19.5ZM636.4 118.7L640.0 121.5L637.7 121.7L635.7 125.5L636.7 128.9L641.2 130.9L649.5 130.7L649.7 125.1L646.4 122.1L647.0 119.8L652.0 119.6L649.2 116.3L646.7 119.1L645.8 114.5L642.6 113.5L639.7 109.4L647.3 107.6L647.3 103.2L636.4 104.4L629.7 109.4L636.4 118.7ZM568.7 17.1L557.6 17.6L559.5 16.8L557.8 16.0L563.6 15.4L568.7 17.1ZM233.8 16.5L227.4 16.4L226.0 14.2L234.6 15.5L233.8 16.5ZM222.1 15.8L223.1 16.9L207.8 15.6L210.5 14.8L207.0 13.1L222.1 15.8ZM791.9 15.8L776.2 16.9L783.6 12.9L792.7 14.7L791.9 15.8ZM550.7 11.9L559.8 14.0L552.9 15.1L547.6 20.0L544.2 20.1L538.2 18.4L540.7 17.4L529.0 12.1L550.7 11.9ZM570.7 10.0L576.1 11.0L564.0 12.8L548.2 10.2L570.7 10.0ZM642.0 9.6L632.2 11.1L624.6 9.5L642.0 9.6ZM777.6 14.2L763.8 13.8L753.3 10.2L766.5 7.6L778.3 11.7L777.6 14.2ZM258.3 12.1L261.6 13.0L247.8 16.1L242.0 15.7L239.0 14.6L241.3 12.8L231.4 10.7L238.1 8.4L236.8 7.8L243.3 7.6L258.3 12.1ZM309.7 2.5L328.2 3.8L312.1 6.9L318.1 6.9L302.3 11.7L286.4 13.0L290.2 13.3L288.3 13.8L290.6 15.2L278.4 18.9L283.6 20.1L276.2 21.7L251.4 20.9L251.1 19.6L256.2 18.9L254.8 16.9L264.0 17.9L255.7 15.6L263.6 12.9L258.5 10.4L272.6 9.8L256.7 9.7L245.6 5.8L279.7 2.4L309.7 2.5ZM424.7 1.3L442.1 3.5L411.4 5.0L438.7 6.3L435.6 7.9L456.2 5.8L466.1 7.5L444.3 10.6L450.7 10.8L445.3 14.6L445.4 17.7L448.7 19.5L439.8 20.5L444.9 21.9L445.6 24.3L442.6 24.6L446.2 27.0L440.0 27.2L443.2 28.3L442.3 29.3L434.5 29.7L438.1 32.8L431.1 32.4L438.5 34.8L439.6 37.0L434.6 37.6L429.0 34.9L430.0 36.8L426.8 38.3L437.9 38.5L422.9 43.1L411.7 44.1L405.0 48.1L389.4 51.5L385.6 57.0L381.1 59.2L382.2 61.4L379.5 66.4L365.9 64.3L356.6 56.6L350.1 46.7L352.8 43.5L357.0 42.4L358.7 39.1L348.1 40.0L349.0 36.6L357.2 37.3L344.9 34.3L348.0 31.7L337.3 23.6L329.8 21.9L309.7 22.1L301.7 19.4L314.5 18.4L296.4 16.5L317.5 12.8L318.5 11.8L311.0 10.8L327.1 7.4L326.0 6.2L360.0 4.3L376.3 6.5L369.7 5.0L370.1 3.8L392.7 1.3L424.7 1.3Z" fill="rgba(188,204,232,0.07)" stroke="rgba(188,204,232,0.40)" stroke-width="0.8" stroke-linejoin="round"/></svg>